# xmcd
#
# Track frame offsets: 
#        183
#        53505
#        119818
#        182045
#
# Disc length: 3096 seconds
#
# Revision: 2
# Processed by: cddbd v1.5.2PL0 Copyright (c) Steve Scherf et al.
# Submitted via: ExactAudioCopy v1.0b3
#
DISCID=320c1604
DTITLE=Phil Woods - At The Frankfurt Jazz Festival
DYEAR=1970
DGENRE=Jazz
TTITLE0=Freedom Jazz Dance
TTITLE1=Ode A Jean-Louis
TTITLE2=Josua
TTITLE3=The Meeting
EXTD=YEAR: 1986
EXTT0=
EXTT1=
EXTT2=
EXTT3=
PLAYORDER=
